<?xml version="1.0" encoding="utf-8"?>
<!-- Generator: Adobe Illustrator 17.1.0, SVG Export Plug-In . SVG Version: 6.00 Build 0)  -->
<!DOCTYPE svg PUBLIC "-//W3C//DTD SVG 1.1//EN" "http://www.w3.org/Graphics/SVG/1.1/DTD/svg11.dtd" [
	<!ENTITY ns_extend "http://ns.adobe.com/Extensibility/1.0/">
	<!ENTITY ns_ai "http://ns.adobe.com/AdobeIllustrator/10.0/">
	<!ENTITY ns_graphs "http://ns.adobe.com/Graphs/1.0/">
	<!ENTITY ns_vars "http://ns.adobe.com/Variables/1.0/">
	<!ENTITY ns_imrep "http://ns.adobe.com/ImageReplacement/1.0/">
	<!ENTITY ns_sfw "http://ns.adobe.com/SaveForWeb/1.0/">
	<!ENTITY ns_custom "http://ns.adobe.com/GenericCustomNamespace/1.0/">
	<!ENTITY ns_adobe_xpath "http://ns.adobe.com/XPath/1.0/">
]>
<svg version="1.1" id="Layer_1" xmlns:x="&ns_extend;" xmlns:i="&ns_ai;" xmlns:graph="&ns_graphs;"
	 xmlns="http://www.w3.org/2000/svg" xmlns:xlink="http://www.w3.org/1999/xlink" x="0px" y="0px"
	 viewBox="0 0 111.333336 147.333328" enable-background="new 0 0 111.333336 147.333328" xml:space="preserve">
<metadata>
	<sfw  xmlns="&ns_sfw;">
		<slices></slices>
		<sliceSourceBounds  height="2331.49292" width="1447.365723" y="-2274.732178" x="-86.054634" bottomLeftOrigin="true">
			</sliceSourceBounds>
	</sfw>
</metadata>
<g>
	<g>
		<path fill="#00AEEF" d="M55.803867,7.012198c-26.37145,0-47.825699,21.455692-47.825699,47.827141
			c0,7.326687,1.698775,14.604263,4.928757,21.152344c-0.008667,0.573479,39.918308,63.035217,39.918308,63.035217
			c0.540257,0.843613,1.473427,1.35498,2.473045,1.359314h0.014446c0.996731,0,1.92701-0.502701,2.473045-1.336197
			l37.537716-57.278748l0.421799-0.65004c5.159889-7.827942,7.887169-16.91552,7.887169-26.281891
			C103.632454,28.467892,82.175316,7.012198,55.803867,7.012198z"/>
		<path fill="#ABD037" d="M55.313152,143.344727h-0.014648c-2.026367-0.008789-3.876953-1.025879-4.963867-2.721191
			c-0.001953-0.003418-9.985352-15.621582-19.967775-31.311035c-15.069335-23.685547-19.027344-29.90625-20.05957-32.039062
			l-0.053711,0.026855C6.829752,70.357422,5.020182,62.59082,5.020182,54.839355
			c0-28.003418,22.78125-50.785645,50.783203-50.785645c28.003902,0,50.787106,22.782227,50.787106,50.785645
			c0,9.945801-2.895508,19.597168-8.375,27.909668l-0.40918,0.632324l-37.545895,57.290039
			C59.163738,142.345215,57.314129,143.344727,55.313152,143.344727z M15.649089,74.864258
			c1.799804,3.19043,24.555664,38.92627,39.664062,62.561523L93.263344,79.51123
			c4.852539-7.361816,7.411133-15.886719,7.411133-24.671875c0-24.740723-20.128906-44.868652-44.87109-44.868652
			c-24.73926,0-44.867188,20.12793-44.867188,44.868652c0,6.848633,1.599609,13.710449,4.624023,19.84375L15.649089,74.864258z"/>
	</g>
	<g>
		<polygon fill="#FFFFFF" points="78.891884,45.672668 70.11039,40.367981 70.11039,34.573425 65.486183,34.573425 
			65.486183,37.574646 55.805767,31.726929 32.719585,45.933472 37.436138,45.90686 37.436138,83.398132 73.927101,83.398132 
			73.927101,45.700684 		"/>
		<rect x="46.133205" y="49.473495" fill="#00AEEF" width="5.480495" height="7.19315"/>
		<rect x="60.519497" y="49.473495" fill="#00AEEF" width="5.480495" height="7.19315"/>
		<rect x="43.050438" y="71.224213" fill="#00AEEF" width="7.53568" height="12.331114"/>
		<rect x="55.039013" y="69.511581" fill="#00AEEF" width="13.016175" height="7.878211"/>
	</g>
</g>
</svg>
